{
    "asset" : {
        "generator" : "Khronos glTF Blender I/O v1.4.40",
        "version" : "2.0"
    },
    "scene" : 0,
    "scenes" : [
        {
            "extras" : {
                "glTF2ExportSettings" : {
                    "export_animations" : 1,
                    "export_cameras" : 0,
                    "export_colors" : 1,
                    "export_extras" : 1,
                    "export_force_sampling" : 0,
                    "export_format" : "GLTF_EMBEDDED",
                    "export_image_format" : "AUTO",
                    "export_lights" : 0,
                    "export_morph" : 1,
                    "export_normals" : 1,
                    "export_skins" : 1,
                    "export_texcoords" : 1,
                    "export_yup" : 1,
                    "use_selection" : 1
                }
            },
            "name" : "Scene",
            "nodes" : [
                4
            ]
        }
    ],
    "nodes" : [
        {
            "extras" : {
                "sparkar_optimization" : {
                    "InvertedReducePercentage" : 0
                },
                "spark_blender_addon" : 1
            },
            "mesh" : 0,
            "name" : "BRAIN_MAT_BrainRight_0"
        },
        {
            "children" : [
                0
            ],
            "name" : "BRAIN"
        },
        {
            "children" : [
                1
            ],
            "name" : "RootNode"
        },
        {
            "children" : [
                2
            ],
            "name" : "8181a983eb9f4550b7cd9ed8683e267a.fbx",
            "rotation" : [
                0.7071068286895752,
                0,
                0,
                0.7071068286895752
            ]
        },
        {
            "children" : [
                3
            ],
            "name" : "Sketchfab_model",
            "rotation" : [
                -0.7071068286895752,
                0,
                0,
                0.7071068286895752
            ]
        }
    ],
    "materials" : [
        {
            "doubleSided" : true,
            "name" : "MAT_BrainRight",
            "pbrMetallicRoughness" : {
                "baseColorFactor" : [
                    0.7758224010467529,
                    0.2788942754268646,
                    0.6653873324394226,
                    1
                ],
                "metallicFactor" : 0,
                "roughnessFactor" : 0.35537347197532654
            }
        }
    ],
    "meshes" : [
        {
            "name" : "BRAIN_MAT_BrainRight_0",
            "primitives" : [
                {
                    "attributes" : {
                        "POSITION" : 0,
                        "NORMAL" : 1
                    },
                    "indices" : 2,
                    "material" : 0
                }
            ]
        }
    ],
    "accessors" : [
        {
            "bufferView" : 0,
            "componentType" : 5126,
            "count" : 4250,
            "max" : [
                7.394952297210693,
                5.500677108764648,
                9.414626121520996
            ],
            "min" : [
                -1.556782841682434,
                -6.762300968170166,
                -9.078401565551758
            ],
            "type" : "VEC3"
        },
        {
            "bufferView" : 1,
            "componentType" : 5126,
            "count" : 4250,
            "type" : "VEC3"
        },
        {
            "bufferView" : 2,
            "componentType" : 5123,
            "count" : 24024,
            "type" : "SCALAR"
        }
    ],
    "bufferViews" : [
        {
            "buffer" : 0,
            "byteLength" : 51000,
            "byteOffset" : 0
        },
        {
            "buffer" : 0,
            "byteLength" : 51000,
            "byteOffset" : 51000
        },
        {
            "buffer" : 0,
            "byteLength" : 48048,
            "byteOffset" : 102000
        }
    ],
    "buffers" : [
        {
            "byteLength" : 150048,
            "uri" : "data:application/octet-stream;base64,"
        }
    ]
}
